<mxfile host="app.diagrams.net" agent="Mozilla/5.0 (Windows NT 10.0; Win64; x64) AppleWebKit/537.36 (KHTML, like Gecko) Chrome/128.0.0.0 Safari/537.36" version="24.7.12">
  <diagram name="Page-1" id="9361dd3d-8414-5efd-6122-117bd74ce7a7">
    <mxGraphModel dx="1547" dy="624" grid="1" gridSize="10" guides="1" tooltips="1" connect="1" arrows="1" fold="1" page="0" pageScale="1.5" pageWidth="826" pageHeight="1169" background="none" math="0" shadow="0">
      <root>
        <mxCell id="0" />
        <mxCell id="1" parent="0" />
        <mxCell id="69" value="" style="fillColor=#DEE8FF;strokeColor=none" parent="1" vertex="1">
          <mxGeometry x="-20" y="20" width="1570" height="800" as="geometry" />
        </mxCell>
        <mxCell id="skWJBsfep3s3KmabRw41-89" value="&lt;b&gt;Compile&lt;/b&gt;" style="shape=umlLifeline;perimeter=lifelinePerimeter;whiteSpace=wrap;html=1;container=1;dropTarget=0;collapsible=0;recursiveResize=0;outlineConnect=0;portConstraint=eastwest;newEdgeStyle={&quot;curved&quot;:0,&quot;rounded&quot;:0};" vertex="1" parent="1">
          <mxGeometry x="250" y="180" width="100" height="550" as="geometry" />
        </mxCell>
        <mxCell id="skWJBsfep3s3KmabRw41-97" value="" style="html=1;points=[[0,0,0,0,5],[0,1,0,0,-5],[1,0,0,0,5],[1,1,0,0,-5]];perimeter=orthogonalPerimeter;outlineConnect=0;targetShapes=umlLifeline;portConstraint=eastwest;newEdgeStyle={&quot;curved&quot;:0,&quot;rounded&quot;:0};fillColor=#FF1C3A;" vertex="1" parent="skWJBsfep3s3KmabRw41-89">
          <mxGeometry x="45" y="80" width="10" height="40" as="geometry" />
        </mxCell>
        <mxCell id="skWJBsfep3s3KmabRw41-98" value="&lt;font color=&quot;#cc0066&quot;&gt;mcfg gen all needed&lt;/font&gt;&lt;div&gt;&lt;font color=&quot;#cc0066&quot;&gt;mbn and oem_hw.txt&amp;nbsp;&lt;/font&gt;&lt;/div&gt;&lt;div&gt;&lt;font color=&quot;#cc0066&quot;&gt;in NON-HLOS.bin&lt;/font&gt;&lt;/div&gt;" style="html=1;align=left;spacingLeft=2;endArrow=block;rounded=0;edgeStyle=orthogonalEdgeStyle;curved=0;rounded=0;" edge="1" target="skWJBsfep3s3KmabRw41-97" parent="skWJBsfep3s3KmabRw41-89">
          <mxGeometry x="-0.0033" relative="1" as="geometry">
            <mxPoint x="50" y="60" as="sourcePoint" />
            <Array as="points">
              <mxPoint x="80" y="90" />
            </Array>
            <mxPoint as="offset" />
          </mxGeometry>
        </mxCell>
        <mxCell id="skWJBsfep3s3KmabRw41-90" value="&lt;b&gt;modem&lt;/b&gt;" style="shape=umlLifeline;perimeter=lifelinePerimeter;whiteSpace=wrap;html=1;container=1;dropTarget=0;collapsible=0;recursiveResize=0;outlineConnect=0;portConstraint=eastwest;newEdgeStyle={&quot;curved&quot;:0,&quot;rounded&quot;:0};" vertex="1" parent="1">
          <mxGeometry x="520" y="180" width="100" height="550" as="geometry" />
        </mxCell>
        <mxCell id="skWJBsfep3s3KmabRw41-106" value="" style="html=1;points=[[0,0,0,0,5],[0,1,0,0,-5],[1,0,0,0,5],[1,1,0,0,-5]];perimeter=orthogonalPerimeter;outlineConnect=0;targetShapes=umlLifeline;portConstraint=eastwest;newEdgeStyle={&quot;curved&quot;:0,&quot;rounded&quot;:0};fillColor=#FF0F27;" vertex="1" parent="skWJBsfep3s3KmabRw41-90">
          <mxGeometry x="45" y="180" width="10" height="40" as="geometry" />
        </mxCell>
        <mxCell id="skWJBsfep3s3KmabRw41-107" value="&lt;font color=&quot;#cc0066&quot;&gt;modem power up&lt;/font&gt;" style="html=1;align=left;spacingLeft=2;endArrow=block;rounded=0;edgeStyle=orthogonalEdgeStyle;curved=0;rounded=0;" edge="1" target="skWJBsfep3s3KmabRw41-106" parent="skWJBsfep3s3KmabRw41-90">
          <mxGeometry relative="1" as="geometry">
            <mxPoint x="50" y="160" as="sourcePoint" />
            <Array as="points">
              <mxPoint x="80" y="190" />
            </Array>
          </mxGeometry>
        </mxCell>
        <mxCell id="skWJBsfep3s3KmabRw41-114" value="" style="html=1;points=[[0,0,0,0,5],[0,1,0,0,-5],[1,0,0,0,5],[1,1,0,0,-5]];perimeter=orthogonalPerimeter;outlineConnect=0;targetShapes=umlLifeline;portConstraint=eastwest;newEdgeStyle={&quot;curved&quot;:0,&quot;rounded&quot;:0};fillColor=#FF0F27;" vertex="1" parent="skWJBsfep3s3KmabRw41-90">
          <mxGeometry x="45" y="260" width="10" height="40" as="geometry" />
        </mxCell>
        <mxCell id="skWJBsfep3s3KmabRw41-115" value="&lt;font color=&quot;#cc0066&quot;&gt;Set RFS paramaters&lt;/font&gt;" style="html=1;align=left;spacingLeft=2;endArrow=block;rounded=0;edgeStyle=orthogonalEdgeStyle;curved=0;rounded=0;" edge="1" target="skWJBsfep3s3KmabRw41-114" parent="skWJBsfep3s3KmabRw41-90">
          <mxGeometry relative="1" as="geometry">
            <mxPoint x="50" y="240" as="sourcePoint" />
            <Array as="points">
              <mxPoint x="80" y="270" />
            </Array>
          </mxGeometry>
        </mxCell>
        <mxCell id="skWJBsfep3s3KmabRw41-122" value="" style="html=1;points=[[0,0,0,0,5],[0,1,0,0,-5],[1,0,0,0,5],[1,1,0,0,-5]];perimeter=orthogonalPerimeter;outlineConnect=0;targetShapes=umlLifeline;portConstraint=eastwest;newEdgeStyle={&quot;curved&quot;:0,&quot;rounded&quot;:0};fillColor=#FF0F27;" vertex="1" parent="skWJBsfep3s3KmabRw41-90">
          <mxGeometry x="45" y="450" width="10" height="40" as="geometry" />
        </mxCell>
        <mxCell id="skWJBsfep3s3KmabRw41-123" value="&lt;font color=&quot;#cc0066&quot;&gt;Activate HW MBN in oem_hw.txt&lt;/font&gt;" style="html=1;align=left;spacingLeft=2;endArrow=block;rounded=0;edgeStyle=orthogonalEdgeStyle;curved=0;rounded=0;" edge="1" target="skWJBsfep3s3KmabRw41-122" parent="skWJBsfep3s3KmabRw41-90">
          <mxGeometry relative="1" as="geometry">
            <mxPoint x="50" y="430" as="sourcePoint" />
            <Array as="points">
              <mxPoint x="80" y="460" />
            </Array>
          </mxGeometry>
        </mxCell>
        <mxCell id="skWJBsfep3s3KmabRw41-93" value="&lt;b&gt;AP&lt;/b&gt;" style="shape=umlLifeline;perimeter=lifelinePerimeter;whiteSpace=wrap;html=1;container=1;dropTarget=0;collapsible=0;recursiveResize=0;outlineConnect=0;portConstraint=eastwest;newEdgeStyle={&quot;curved&quot;:0,&quot;rounded&quot;:0};" vertex="1" parent="1">
          <mxGeometry x="810" y="180" width="100" height="540" as="geometry" />
        </mxCell>
        <mxCell id="skWJBsfep3s3KmabRw41-117" value="" style="html=1;points=[[0,0,0,0,5],[0,1,0,0,-5],[1,0,0,0,5],[1,1,0,0,-5]];perimeter=orthogonalPerimeter;outlineConnect=0;targetShapes=umlLifeline;portConstraint=eastwest;newEdgeStyle={&quot;curved&quot;:0,&quot;rounded&quot;:0};fillColor=#FF0F27;" vertex="1" parent="skWJBsfep3s3KmabRw41-93">
          <mxGeometry x="45" y="320" width="10" height="80" as="geometry" />
        </mxCell>
        <mxCell id="skWJBsfep3s3KmabRw41-102" value="&lt;font color=&quot;#cc0066&quot;&gt;AP mount NON-HLOS.bin&lt;/font&gt;&lt;div&gt;&lt;font color=&quot;#cc0066&quot;&gt;/fiemware/image/modem_pr/mcfg/configs&lt;/font&gt;&lt;/div&gt;" style="endArrow=block;endSize=16;endFill=0;html=1;rounded=0;" edge="1" parent="1">
          <mxGeometry width="160" relative="1" as="geometry">
            <mxPoint x="300" y="320" as="sourcePoint" />
            <mxPoint x="859.5" y="320" as="targetPoint" />
          </mxGeometry>
        </mxCell>
        <mxCell id="skWJBsfep3s3KmabRw41-118" value="&lt;font color=&quot;#cc0066&quot;&gt;remote discover,&lt;/font&gt;&lt;div&gt;&lt;font color=&quot;#cc0066&quot;&gt;read oem_hw.txt&lt;/font&gt;&lt;/div&gt;" style="html=1;verticalAlign=bottom;endArrow=block;curved=0;rounded=0;entryX=0;entryY=0;entryDx=0;entryDy=5;" edge="1" target="skWJBsfep3s3KmabRw41-117" parent="1" source="skWJBsfep3s3KmabRw41-90">
          <mxGeometry relative="1" as="geometry">
            <mxPoint x="785" y="505" as="sourcePoint" />
          </mxGeometry>
        </mxCell>
        <mxCell id="skWJBsfep3s3KmabRw41-119" value="&lt;font color=&quot;#cc0066&quot;&gt;load mcfg_hw.mbn&lt;/font&gt;" style="html=1;verticalAlign=bottom;endArrow=open;dashed=1;endSize=8;curved=0;rounded=0;exitX=0;exitY=1;exitDx=0;exitDy=-5;" edge="1" source="skWJBsfep3s3KmabRw41-117" parent="1" target="skWJBsfep3s3KmabRw41-90">
          <mxGeometry relative="1" as="geometry">
            <mxPoint x="785" y="575" as="targetPoint" />
          </mxGeometry>
        </mxCell>
      </root>
    </mxGraphModel>
  </diagram>
</mxfile>
